<svg id="Layer_6" data-name="Layer 6" xmlns="http://www.w3.org/2000/svg" viewBox="0 0 3840 1298.47"><defs><style>.cls-1{fill:#e9e7f2;}.cls-2{fill:#e4e1ef;}</style></defs><title>profile</title><path class="cls-1" d="M0,875.78c71.11,35.89,157.63-97,332.25-87.57,119.69,6.46,201.59,75.49,267.54,125.65,266.14,202.38,549.57,307.86,632.36,335,552,181.16,1134.89-181.7,1369-327.43C2770.5,816,2772.4,784,2882.56,746.33,3322.77,595.74,3669.31,977.89,3840,833.9V182.05H0Z"/><path class="cls-2" d="M0,815.15c71.11,32.75,157.63-88.5,332.25-79.91,119.69,5.88,360.39,168.54,426.34,214.31,266.14,184.7,390.77,181.31,473.56,206.1,552,165.34,1134.89-165.81,1369-298.81C2770.5,760.61,2772.4,731.41,2882.56,697c440.21-137.44,786.75,211.31,957.44,79.91V0H0Z"/></svg>