<svg id="Background" xmlns="http://www.w3.org/2000/svg" xmlns:xlink="http://www.w3.org/1999/xlink" viewBox="0 0 3840 336.17"><defs><style>.cls-1{fill:url(#linear-gradient);}.cls-2{fill:url(#linear-gradient-2);}</style><linearGradient id="linear-gradient" x1="1672.75" y1="-790.23" x2="2527.46" y2="2653.39" gradientUnits="userSpaceOnUse"><stop offset="0" stop-color="#bbadff"/><stop offset="0.6" stop-color="#4f518c"/></linearGradient><linearGradient id="linear-gradient-2" x1="1849.6" y1="-61.42" x2="2871.53" y2="3617.55" gradientUnits="userSpaceOnUse"><stop offset="0" stop-color="#bbadff"/><stop offset="0.57" stop-color="#4f518c"/></linearGradient></defs><title>19199753</title><path class="cls-1" d="M0,80V332a2153.71,2153.71,0,0,0,494.67,82.8c225.23,11,460-46.11,855.1-93.68,334.46-40.25,507.2,23.8,688.61,49.94,57.25,8.25,357.41,63,709.1,31.35,335.28-30.19,458.89-114.5,768.1-76.64,130.71,16,253.67,55.18,324.42,76.64V80Z" transform="translate(0 -79.96)"/><path class="cls-2" d="M0,80V304.11a2397.76,2397.76,0,0,0,494.67,73.64c225.23,9.77,467.69-33.43,862.85-75.74,334.45-35.81,488.56,20.83,670,44.07,57.25,7.34,367.92,44.72,720,20.66,349.5-23.88,475.83-91.52,785-57.84A2020.54,2020.54,0,0,1,3840,366.74V80Z" transform="translate(0 -79.96)"/></svg>