<!-- Generator: Adobe Illustrator 24.0.0, SVG Export Plug-In  -->
<svg version="1.1" xmlns="http://www.w3.org/2000/svg" xmlns:xlink="http://www.w3.org/1999/xlink" x="0px" y="0px" width="3840px"
	 height="336.17px" viewBox="0 0 3840 336.17" style="enable-background:new 0 0 3840 336.17;" xml:space="preserve">
<style type="text/css">
	.st0{fill:url(#SVGID_1_);}
	.st1{fill:url(#SVGID_2_);}
	.st2{fill:url(#SVGID_3_);}
	.st3{fill:url(#SVGID_4_);}
</style>
<defs>
</defs>
<linearGradient id="SVGID_1_" gradientUnits="userSpaceOnUse" x1="1672.7462" y1="-870.1831" x2="2527.4558" y2="2573.4331">
	<stop  offset="0" style="stop-color:#AA80F9"/>
	<stop  offset="0.9964" style="stop-color:#6165D7"/>
</linearGradient>
<path class="st0" d="M0,0v252c108.38,31.43,280.37,72.35,494.67,82.8c225.23,10.98,459.95-46.11,855.11-93.67
	c334.45-40.26,507.19,23.8,688.6,49.94c57.25,8.25,357.41,63.03,709.11,31.35c335.28-30.19,458.89-114.5,768.1-76.64
	c130.71,16,253.67,55.18,324.42,76.64c0-107.47,0-214.95,0-322.42H0z"/>
<linearGradient id="SVGID_2_" gradientUnits="userSpaceOnUse" x1="1849.5981" y1="-141.3721" x2="2871.5325" y2="3537.5945">
	<stop  offset="0" style="stop-color:#AA80F9"/>
	<stop  offset="0.9964" style="stop-color:#6165D7"/>
</linearGradient>
<path class="st1" d="M0,0v224.15c108.38,27.96,280.37,64.36,494.67,73.65c225.23,9.76,467.69-33.43,862.85-75.74
	c334.45-35.81,488.56,20.83,669.97,44.07c57.25,7.34,367.92,44.72,720,20.66c349.5-23.89,475.83-91.52,785.03-57.84
	c130.71,14.24,236.73,38.75,307.48,57.84c0-95.59,0-191.19,0-286.79H0z"/>
</svg>
